<?xml version="1.0" encoding="UTF-8"?>
<svg version="1.1" xmlns="http://www.w3.org/2000/svg" width="223" height="223">
<path d="M0 0 C0.97380615 0.47348877 0.97380615 0.47348877 1.96728516 0.95654297 C27.93041997 13.90988276 48.24928427 37.07396089 57.8125 64.5 C58.56971536 66.99164783 59.30000269 69.4916763 60 72 C60.3196875 73.07507813 60.639375 74.15015625 60.96875 75.2578125 C68.07845953 103.63081996 62.59857575 134.17258498 48.0300293 159.14477539 C45.04504458 164.09097785 41.75100981 168.61445106 38 173 C37.34644531 173.78632813 36.69289062 174.57265625 36.01953125 175.3828125 C17.79740688 196.55897889 -7.96287341 210.5907215 -36 213 C-66.80481568 214.43672438 -96.23704086 208.96261042 -120 188 C-120.80695313 187.32453125 -121.61390625 186.6490625 -122.4453125 185.953125 C-142.70936178 168.54764066 -157.60832468 142.94679699 -160 116 C-160.61309481 101.26675052 -161.23144886 86.25330144 -157 72 C-156.67128906 70.80375 -156.34257812 69.6075 -156.00390625 68.375 C-147.78966805 41.08894924 -128.67359504 17.28633513 -103.7824707 3.34570312 C-95.46232663 -1.12083116 -87.14097126 -4.53859802 -78 -7 C-76.83082031 -7.31839844 -75.66164063 -7.63679687 -74.45703125 -7.96484375 C-49.91417442 -13.57685632 -22.66960162 -11.02602417 0 0 Z " fill="#070707" transform="translate(160,10)"/>
<path d="M0 0 C0.97380615 0.47348877 0.97380615 0.47348877 1.96728516 0.95654297 C27.93041997 13.90988276 48.24928427 37.07396089 57.8125 64.5 C58.56971536 66.99164783 59.30000269 69.4916763 60 72 C60.3196875 73.07507813 60.639375 74.15015625 60.96875 75.2578125 C68.07845953 103.63081996 62.59857575 134.17258498 48.0300293 159.14477539 C45.04504458 164.09097785 41.75100981 168.61445106 38 173 C37.34644531 173.78632813 36.69289062 174.57265625 36.01953125 175.3828125 C17.79740688 196.55897889 -7.96287341 210.5907215 -36 213 C-66.80481568 214.43672438 -96.23704086 208.96261042 -120 188 C-120.80695313 187.32453125 -121.61390625 186.6490625 -122.4453125 185.953125 C-142.70936178 168.54764066 -157.60832468 142.94679699 -160 116 C-160.61309481 101.26675052 -161.23144886 86.25330144 -157 72 C-156.67128906 70.80375 -156.34257812 69.6075 -156.00390625 68.375 C-147.78966805 41.08894924 -128.67359504 17.28633513 -103.7824707 3.34570312 C-95.46232663 -1.12083116 -87.14097126 -4.53859802 -78 -7 C-76.83082031 -7.31839844 -75.66164063 -7.63679687 -74.45703125 -7.96484375 C-49.91417442 -13.57685632 -22.66960162 -11.02602417 0 0 Z M-108 25 C-108.71800781 25.57105469 -109.43601563 26.14210938 -110.17578125 26.73046875 C-129.05817819 42.46020972 -139.96289621 65.89529793 -143 90 C-144.78791698 112.94125573 -141.67644677 134.05611872 -130 154 C-129.45601562 154.9796875 -128.91203125 155.959375 -128.3515625 156.96875 C-115.13479441 179.40501973 -92.98137905 194.19849602 -68.2421875 201.0390625 C-54.56234116 204.14679829 -40.69839208 203.91960773 -27 201 C-25.92878906 200.77828125 -24.85757813 200.5565625 -23.75390625 200.328125 C-8.5948723 196.61284731 5.64447123 188.65527116 17 178 C17.7734375 177.30519531 18.546875 176.61039063 19.34375 175.89453125 C37.30154291 159.01297593 48.50285076 133.82289279 49.3359375 109.30078125 C49.57170424 90.89795005 47.91160679 75.77260639 40 59 C39.63261719 58.16339844 39.26523438 57.32679687 38.88671875 56.46484375 C35.56180205 49.25514464 30.93910623 43.18245763 26 37 C25.4225 36.26652344 24.845 35.53304687 24.25 34.77734375 C10.67912428 18.36832816 -11.16717105 5.91345854 -32.45703125 3.2109375 C-61.46122023 1.48411699 -85.18687175 6.14383913 -108 25 Z " fill="#0A0A0A" transform="translate(160,10)"/>
<path d="M0 0 C4.35530882 3.33660947 8.38926544 6.92497662 12.3046875 10.765625 C12.8821875 11.31863281 13.4596875 11.87164062 14.0546875 12.44140625 C24.18098532 23.06874485 25.68802635 35.92444911 25.5234375 49.77734375 C25.35360271 55.49546896 24.17136289 60.38098446 22.3046875 65.765625 C21.67542016 68.1186546 21.05067983 70.472898 20.4296875 72.828125 C16.47298548 86.38130579 9.79341269 97.05596427 -2.4453125 104.703125 C-17.37643586 112.59556123 -34.73124359 114.5464273 -51.02734375 109.765625 C-55.43633167 108.11306145 -59.589802 106.06362092 -63.6953125 103.765625 C-63.08417483 99.77443155 -62.26896301 95.94733532 -61.171875 92.0625 C-60.8728125 90.99902344 -60.57375 89.93554688 -60.265625 88.83984375 C-59.95367187 87.74285156 -59.64171875 86.64585937 -59.3203125 85.515625 C-59.01609375 84.43410156 -58.711875 83.35257812 -58.3984375 82.23828125 C-56.56074864 75.72783654 -54.66316088 69.23790195 -52.6953125 62.765625 C-52.0353125 62.765625 -51.3753125 62.765625 -50.6953125 62.765625 C-50.2209375 63.466875 -49.7465625 64.168125 -49.2578125 64.890625 C-44.51930462 70.20699969 -38.83512045 73.68098773 -31.62890625 74.21484375 C-25.46467963 74.38670092 -19.36647008 74.44248001 -13.6953125 71.765625 C-12.82114852 70.0492568 -12.82114852 70.0492568 -12.6953125 67.765625 C-12.37433594 66.61191406 -12.05335938 65.45820312 -11.72265625 64.26953125 C-11.45678711 63.30756836 -11.45678711 63.30756836 -11.18554688 62.32617188 C-10.81778117 60.99675732 -10.44539899 59.66861103 -10.06835938 58.34179688 C-9.08580525 54.75349481 -8.20790592 51.48291255 -8.6953125 47.765625 C-12.3890091 41.97796659 -19.12700228 38.32656345 -24.75 34.68359375 C-27.30499184 33.01979933 -29.79861038 31.31692249 -32.2578125 29.515625 C-32.85722656 29.07734375 -33.45664063 28.6390625 -34.07421875 28.1875 C-36.64856223 25.92952162 -38.52607885 24.06153746 -38.98046875 20.58203125 C-38.56341561 16.36028279 -37.9952254 14.16280695 -35.3828125 10.703125 C-30.6569576 7.46964533 -25.12729685 7.81803068 -19.6953125 8.765625 C-14.64457702 10.67705622 -10.23071892 12.79715522 -6.8671875 17.109375 C-5.46579665 20.28586093 -5.55482664 22.16014075 -6.0078125 25.578125 C-6.12769531 26.55394531 -6.24757813 27.52976563 -6.37109375 28.53515625 C-6.47808594 29.27121094 -6.58507812 30.00726563 -6.6953125 30.765625 C-4.7153125 31.260625 -4.7153125 31.260625 -2.6953125 31.765625 C-2.57285156 30.94835937 -2.45039063 30.13109375 -2.32421875 29.2890625 C-1.60635263 25.26722872 -0.64502842 21.34649356 0.3671875 17.390625 C0.55345703 16.65457031 0.73972656 15.91851562 0.93164062 15.16015625 C1.38716207 13.36143056 1.845623 11.56344971 2.3046875 9.765625 C0.32932005 10.11349208 0.32932005 10.11349208 -1.6953125 10.765625 C-2.0253125 11.425625 -2.3553125 12.085625 -2.6953125 12.765625 C-4.82984448 11.7745923 -6.66599722 10.78872569 -8.51953125 9.328125 C-14.79583931 4.82090197 -22.46947859 3.04122431 -30.109375 3.29296875 C-33.72203787 3.95328931 -36.22342318 5.49144588 -39.13671875 7.671875 C-40.6953125 8.765625 -40.6953125 8.765625 -42.6953125 8.765625 C-44.57182393 14.90701166 -46.34435151 21.06941871 -48.04125977 27.26269531 C-51.02817449 38.14279432 -54.27745048 48.90393201 -57.77294922 59.63085938 C-60.26991177 67.32769466 -62.5626355 75.06539435 -64.70532227 82.86816406 C-66.11574396 87.95540566 -67.77412079 92.84714887 -69.6953125 97.765625 C-79.2969115 93.49824767 -83.783101 82.92164506 -87.6953125 73.765625 C-93.83194913 55.47927154 -87.45897995 35.52498987 -79.65087891 18.65087891 C-74.05538244 7.61142471 -63.96415991 -0.58597544 -52.6953125 -5.234375 C-51.9734375 -5.5540625 -51.2515625 -5.87375 -50.5078125 -6.203125 C-35.14797479 -11.96306414 -13.5294988 -9.01966586 0 0 Z " fill="#FAFAFA" transform="translate(143.6953125,62.234375)"/>
<path d="M0 0 C10.97572766 9.11546004 19.49109366 20.00336539 25.67700195 32.87158203 C26.1152832 33.74041016 26.55356445 34.60923828 27.00512695 35.50439453 C33.60233146 49.13596769 35.85665692 62.51255962 35.86450195 77.49658203 C35.87674805 78.70443359 35.88899414 79.91228516 35.90161133 81.15673828 C35.92060038 92.91729349 34.35555073 103.35393337 30.05200195 114.30908203 C29.70008789 115.21505127 29.34817383 116.12102051 28.9855957 117.05444336 C18.81035146 142.44502726 -0.29095399 161.18588458 -25.10424805 172.14501953 C-34.15840811 175.95751485 -43.47267946 178.54232347 -53.32299805 178.87158203 C-54.59916992 178.92314453 -55.8753418 178.97470703 -57.19018555 179.02783203 C-82.23028897 179.72434985 -105.72598334 171.09960708 -124.13549805 154.12158203 C-143.0101555 136.0428731 -155.5959176 111.91803953 -156.68237305 85.48095703 C-157.32566754 54.20361355 -148.04883203 27.72660213 -126.32299805 4.87158203 C-91.07801721 -28.43517989 -37.64063557 -30.15531086 0 0 Z M-125.90893555 20.11376953 C-133.46635606 28.74732759 -139.1767184 38.17191205 -143.32299805 48.87158203 C-143.73678711 49.89380859 -144.15057617 50.91603516 -144.5769043 51.96923828 C-147.56296828 60.86500379 -147.73745995 69.61442164 -147.82299805 78.93408203 C-147.84152832 80.18825928 -147.86005859 81.44243652 -147.87915039 82.73461914 C-147.79893293 94.76487902 -144.84693809 105.74510955 -139.63549805 116.55908203 C-139.29301025 117.27402832 -138.95052246 117.98897461 -138.59765625 118.72558594 C-135.35796007 125.22549661 -131.3084626 130.58715121 -126.32299805 135.87158203 C-125.02168945 137.29083984 -125.02168945 137.29083984 -123.6940918 138.73876953 C-108.18050978 155.02472049 -86.78113815 164.65764107 -64.26196289 165.24072266 C-39.76707827 165.30274811 -17.65917333 156.52000521 0.08325195 139.58642578 C16.60847089 122.28969813 25.53177729 100.48997321 25.13256836 76.4453125 C24.22963396 52.8060495 14.97574511 33.58387539 -1.32299805 16.87158203 C-1.91854492 16.20255859 -2.5140918 15.53353516 -3.12768555 14.84423828 C-15.1592956 1.64538248 -35.33331802 -6.32258075 -52.96606445 -7.27050781 C-81.83365705 -8.21283022 -105.40618924 -1.17003377 -125.90893555 20.11376953 Z " fill="#F5F5F5" transform="translate(173.322998046875,34.12841796875)"/>
<path d="M0 0 C3.55317932 1.7670381 6.11026767 3.64933017 8.90625 6.4453125 C9.23625 5.4553125 9.56625 4.4653125 9.90625 3.4453125 C11.22625 3.4453125 12.54625 3.4453125 13.90625 3.4453125 C13.38083553 11.195176 11.35033524 18.0903211 8.90625 25.4453125 C7.25625 25.1153125 5.60625 24.7853125 3.90625 24.4453125 C4.00164062 23.69765625 4.09703125 22.95 4.1953125 22.1796875 C4.30617188 21.19484375 4.41703125 20.21 4.53125 19.1953125 C4.64726562 18.22078125 4.76328125 17.24625 4.8828125 16.2421875 C4.90841905 13.18647277 4.68038108 11.90822388 2.90625 9.4453125 C-3.35514787 4.5528941 -9.57269382 2.52184993 -17.48046875 3.00390625 C-20.26572272 3.3607805 -20.26572272 3.3607805 -23.28125 4.8828125 C-25.45924276 7.96204365 -26.00529162 10.34692903 -26.5390625 14.03125 C-25.61313354 19.05075965 -21.86873661 21.90310575 -17.89453125 24.68359375 C-16.7362861 25.38253764 -15.57334938 26.0737559 -14.40625 26.7578125 C-7.55271982 30.95085857 -1.7883819 35.7506806 3.90625 41.4453125 C3.33615176 48.99911415 2.31666676 59.1331564 -2.09375 65.4453125 C-8.65349488 69.69897277 -16.55347586 69.64646756 -24.09375 68.4453125 C-30.04400592 66.29988767 -34.88917208 63.18992795 -39.09375 58.4453125 C-39.09375 57.7853125 -39.09375 57.1253125 -39.09375 56.4453125 C-39.75375 56.4453125 -40.41375 56.4453125 -41.09375 56.4453125 C-41.320625 57.7446875 -41.5475 59.0440625 -41.78125 60.3828125 C-43.19691609 67.48122333 -45.36007806 74.35178281 -47.44580078 81.27490234 C-48.461639 84.67761588 -49.43573225 88.09194456 -50.40625 91.5078125 C-50.89544922 93.22677734 -50.89544922 93.22677734 -51.39453125 94.98046875 C-51.62527344 95.79386719 -51.85601562 96.60726562 -52.09375 97.4453125 C-51.18753906 97.7340625 -50.28132813 98.0228125 -49.34765625 98.3203125 C-46.74547983 99.21998454 -44.48498011 100.23499476 -42.03125 101.4453125 C-33.65583278 104.91457342 -24.04130417 104.83777777 -15.09375 105.4453125 C-15.09375 105.7753125 -15.09375 106.1053125 -15.09375 106.4453125 C-17.40375 106.4453125 -19.71375 106.4453125 -22.09375 106.4453125 C-22.09375 107.1053125 -22.09375 107.7653125 -22.09375 108.4453125 C-20.9490625 108.55746094 -19.804375 108.66960937 -18.625 108.78515625 C-14.08947797 109.3520965 -9.92263996 110.57687388 -5.59375 112.0078125 C-4.86671875 112.24177734 -4.1396875 112.47574219 -3.390625 112.71679688 C-1.62294739 113.28664031 0.14195969 113.86506654 1.90625 114.4453125 C-11.54527539 121.65581485 -29.70530815 119.42303259 -43.83691406 115.21582031 C-56.06360529 111.04149778 -67.06499347 103.63109088 -76.09375 94.4453125 C-76.09375 93.7853125 -76.09375 93.1253125 -76.09375 92.4453125 C-75.21332031 92.67347656 -74.33289063 92.90164062 -73.42578125 93.13671875 C-71.68361328 93.56791016 -71.68361328 93.56791016 -69.90625 94.0078125 C-68.75769531 94.29785156 -67.60914062 94.58789062 -66.42578125 94.88671875 C-63.20894907 95.42600011 -61.19702217 95.32778726 -58.09375 94.4453125 C-58.42375 93.4553125 -58.75375 92.4653125 -59.09375 91.4453125 C-58.56811523 89.23486328 -58.56811523 89.23486328 -57.65234375 86.640625 C-57.31912109 85.67600342 -56.98589844 84.71138184 -56.64257812 83.7175293 C-56.27583984 82.67894775 -55.90910156 81.64036621 -55.53125 80.5703125 C-52.86408705 72.80364996 -50.30235163 65.04283238 -48.09375 57.1328125 C-47.86042969 56.29943359 -47.62710938 55.46605469 -47.38671875 54.60742188 C-46.89456352 52.84915761 -46.40254284 51.09085569 -45.91064453 49.33251953 C-43.36713146 40.34280478 -40.69294127 31.39033598 -37.99707031 22.4453125 C-37.43757524 20.58718399 -36.88154604 18.72800333 -36.33105469 16.8671875 C-35.70564252 14.76279633 -35.06072354 12.66581141 -34.40625 10.5703125 C-34.07238281 9.47976562 -33.73851562 8.38921875 -33.39453125 7.265625 C-31.39256205 2.9250191 -28.35391677 0.31542765 -24.46875 -2.3671875 C-15.79248753 -5.41994652 -8.27825469 -3.44927279 0 0 Z " fill="#0E0E0E" transform="translate(132.09375,68.5546875)"/>
<path d="M0 0 C0.97380615 0.47348877 0.97380615 0.47348877 1.96728516 0.95654297 C27.93041997 13.90988276 48.24928427 37.07396089 57.8125 64.5 C58.56971536 66.99164783 59.30000269 69.4916763 60 72 C60.3196875 73.07507813 60.639375 74.15015625 60.96875 75.2578125 C68.07845953 103.63081996 62.59857575 134.17258498 48.0300293 159.14477539 C42.03489624 169.07887713 34.26878218 177.88822002 26 186 C25.34 185.67 24.68 185.34 24 185 C24.72703125 184.30777344 24.72703125 184.30777344 25.46875 183.6015625 C37.95551373 171.45098087 46.55089213 158.15235275 53 142 C53.30808594 141.30519531 53.61617187 140.61039063 53.93359375 139.89453125 C56.87176795 132.99819492 57.74758009 125.34853607 59 118 C59.18691406 117.03578125 59.37382812 116.0715625 59.56640625 115.078125 C63.29568046 88.60363782 55.45188354 59.6922116 39.66552734 38.18164062 C36.62429117 34.28245344 33.35546621 30.63018275 30 27 C29.28328125 26.19046875 28.5665625 25.3809375 27.828125 24.546875 C9.24728049 4.56897451 -18.25527555 -5.02172588 -44.94921875 -6.2890625 C-74.64649167 -7.11507141 -100.32642972 4.30457664 -122.13671875 23.921875 C-134.94041628 36.09670723 -143.82083668 51.3517912 -149.33447266 68.00585938 C-149.94421379 69.83284603 -150.60071233 71.6440548 -151.26171875 73.453125 C-154.25381891 82.98585113 -154.3674335 92.46568344 -154.375 102.375 C-154.37699402 103.07077148 -154.37898804 103.76654297 -154.38104248 104.48339844 C-154.37844068 112.5101995 -154.03752844 120.20216094 -152 128 C-151.83387207 128.66209473 -151.66774414 129.32418945 -151.49658203 130.00634766 C-148.67034988 140.69568841 -144.3315998 150.34993732 -139 160 C-138.46761719 160.97582031 -137.93523437 161.95164063 -137.38671875 162.95703125 C-129.90212229 175.64184361 -119.10492034 185.79883446 -107 194 C-105.69675781 194.93585938 -105.69675781 194.93585938 -104.3671875 195.890625 C-95.07870505 202.26779206 -84.61723569 205.4938431 -74 209 C-78.17812527 210.80296362 -81.80159879 209.0344976 -85.8125 207.5625 C-86.56152588 207.29099121 -87.31055176 207.01948242 -88.08227539 206.73974609 C-99.94859339 202.28940779 -110.46034594 196.4154524 -120 188 C-120.80695313 187.32453125 -121.61390625 186.6490625 -122.4453125 185.953125 C-142.70936178 168.54764066 -157.60832468 142.94679699 -160 116 C-160.61309481 101.26675052 -161.23144886 86.25330144 -157 72 C-156.67128906 70.80375 -156.34257812 69.6075 -156.00390625 68.375 C-147.78966805 41.08894924 -128.67359504 17.28633513 -103.7824707 3.34570312 C-95.46232663 -1.12083116 -87.14097126 -4.53859802 -78 -7 C-76.83082031 -7.31839844 -75.66164063 -7.63679687 -74.45703125 -7.96484375 C-49.91417442 -13.57685632 -22.66960162 -11.02602417 0 0 Z " fill="#F3F3F3" transform="translate(160,10)"/>
<path d="M0 0 C-5.58337123 25.77554961 -5.58337123 25.77554961 -11.58203125 34.78125 C-17.06787896 43.36516598 -18.92829364 53.08027909 -19.18457031 63.10766602 C-19.41675308 71.15349191 -20.59644821 78.343694 -22.9375 86.0625 C-23.20272461 86.9376123 -23.46794922 87.81272461 -23.74121094 88.71435547 C-25.20022962 93.2536254 -25.20022962 93.2536254 -26 95 C-26.99 95.495 -26.99 95.495 -28 96 C-28.80008365 94.02422092 -29.58959921 92.04416153 -30.375 90.0625 C-30.81585938 88.96035156 -31.25671875 87.85820312 -31.7109375 86.72265625 C-34.50538982 78.65261666 -35.36046646 71.2156547 -35.3125 62.6875 C-35.30831055 61.67220215 -35.30412109 60.6569043 -35.29980469 59.61083984 C-35.19096604 52.39159561 -34.55596385 45.80855887 -32 39 C-31.7215625 38.24460938 -31.443125 37.48921875 -31.15625 36.7109375 C-26.89928903 26.32542065 -13.33247702 0 0 0 Z " fill="#F7F7F7" transform="translate(72,49)"/>
<path d="M0 0 C0.66 0 1.32 0 2 0 C10.57793434 16.85106898 11.84662713 37.20931489 6.328125 55.28125 C1.51946087 68.74550957 -5.98487844 80.7067825 -17 90 C-17.66 90 -18.32 90 -19 90 C-19 90.66 -19 91.32 -19 92 C-21.31 93.32 -23.62 94.64 -26 96 C-24.69988887 85.88230345 -22.61443355 76.57484873 -16.51953125 68.2734375 C-10.50978371 59.28199002 -7.85965863 48.64675077 -7.82397461 37.95776367 C-7.76301084 24.56778457 -4.22873633 12.61702048 0 0 Z " fill="#F6F6F6" transform="translate(179,79)"/>
<path d="M0 0 C1.21300781 0.42539062 2.42601562 0.85078125 3.67578125 1.2890625 C18.11899737 6.59786115 30.3672621 14.84737683 40 27 C40 27.66 40 28.32 40 29 C26.35011695 25.92673292 13.32800643 22.85674353 0.8203125 16.390625 C-5.66694234 13.19192317 -11.40771081 11.95070326 -18.625 11.75 C-29.82066915 11.25420827 -40.39245024 7.3829768 -51 4 C-40.6256356 -7.46712556 -12.99309901 -4.56560679 0 0 Z " fill="#F3F3F3" transform="translate(134,40)"/>
<path d="M0 0 C4.44920268 2.11743257 8.30258902 4.90805791 12.3125 7.75 C13.04662109 8.26304688 13.78074219 8.77609375 14.53710938 9.3046875 C27.08288323 18.16576646 27.08288323 18.16576646 29 22 C29.70153846 29.13230769 29.70153846 29.13230769 26.625 32.9375 C21.44575615 37.00690588 16.41340252 36.67997521 10 36 C6.30463476 34.80595441 3.22350925 33.15090794 0 31 C-0.65613281 30.56558594 -1.31226562 30.13117188 -1.98828125 29.68359375 C-4.48522759 27.66881636 -5.82811135 26.14305952 -6.3125 22.921875 C-5.8949343 15.04032241 -2.65961514 7.36055851 0 0 Z " fill="#F8F8F8" transform="translate(101,93)"/>
<path d="M0 0 C5.34062787 1.30533957 10.67370491 2.63733763 16 4 C16.93457031 4.23847656 17.86914062 4.47695312 18.83203125 4.72265625 C23.66649728 6.0615548 28.03182388 7.90179649 32.5625 10.0625 C39.43693588 13.31077146 45.32164322 14.8676982 52.875 15.25 C61.54845928 15.8828275 69.81956107 19.22797562 78 22 C64.31029798 29.01606146 46.57512187 27.03329781 32.25683594 22.77050781 C20.03014471 18.59618528 9.02875653 11.18577838 0 2 C0 1.34 0 0.68 0 0 Z " fill="#F0F0F0" transform="translate(56,161)"/>
<path d="M0 0 C0.66 0 1.32 0 2 0 C2.56847656 1.12277344 3.13695312 2.24554688 3.72265625 3.40234375 C7.87630105 11.5005937 11.92227212 19.15793312 18 26 C18.81082031 26.95261719 19.62164063 27.90523437 20.45703125 28.88671875 C26.61182889 35.98099187 33.22459116 41.67240505 41 47 C41.87140625 47.62648437 42.7428125 48.25296875 43.640625 48.8984375 C52.93034087 55.26773371 63.3854478 58.49472927 74 62 C69.82187473 63.80296362 66.19840121 62.0344976 62.1875 60.5625 C61.06396118 60.15523682 61.06396118 60.15523682 59.91772461 59.73974609 C48.05140661 55.28940779 37.53965406 49.4154524 28 41 C26.78957031 39.98679687 26.78957031 39.98679687 25.5546875 38.953125 C14.20721479 29.20639296 5.90546189 18.19754465 -1 5 C-0.34 4.67 0.32 4.34 1 4 C0.67 2.68 0.34 1.36 0 0 Z " fill="#F0F0F0" transform="translate(12,157)"/>
<path d="M0 0 C0.33 0 0.66 0 1 0 C1.33 3.3 1.66 6.6 2 10 C2.33 10 2.66 10 3 10 C3.5781607 22.07713468 1.34945009 31.73833616 -3.875 42.5625 C-4.20242187 43.25375977 -4.52984375 43.94501953 -4.8671875 44.65722656 C-6.93488027 48.7340544 -8.71243931 51.23827952 -13 53 C-13.66 52.67 -14.32 52.34 -15 52 C-14.60167969 51.45472656 -14.20335937 50.90945312 -13.79296875 50.34765625 C-13.26316406 49.59355469 -12.73335937 48.83945313 -12.1875 48.0625 C-11.66542969 47.33160156 -11.14335937 46.60070312 -10.60546875 45.84765625 C-8.46629667 42.05335833 -7.25267525 38.1584746 -6 34 C-5.77304443 33.25339111 -5.54608887 32.50678223 -5.31225586 31.73754883 C-2.17254396 21.11749355 -0.18242533 11.09477671 0 0 Z " fill="#0E0E0E" transform="translate(169,102)"/>
<path d="M0 0 C2.0625 0.4375 2.0625 0.4375 4 1 C3.54109375 1.4846875 3.0821875 1.969375 2.609375 2.46875 C1.99578125 3.1390625 1.3821875 3.809375 0.75 4.5 C0.14671875 5.1496875 -0.4565625 5.799375 -1.078125 6.46875 C-5.64664024 12.48581885 -7.95227362 19.33805006 -10.125 26.5 C-10.37636719 27.30308594 -10.62773438 28.10617188 -10.88671875 28.93359375 C-12.43039055 33.92021941 -13.77785998 38.92520904 -15 44 C-15.66 44 -16.32 44 -17 44 C-17 46.64 -17 49.28 -17 52 C-17.33 52 -17.66 52 -18 52 C-19.09180294 32.59016994 -13.60222264 16.05500422 -1 1 C-0.67 0.67 -0.34 0.34 0 0 Z " fill="#1D1D1D" transform="translate(70,68)"/>
<path d="M0 0 C2.54644639 4.50601647 2.10878397 8.07280023 1 13 C-3.37365475 28.55399072 -10.23209017 42.86089566 -21 55 C-21.79148438 55.89976562 -22.58296875 56.79953125 -23.3984375 57.7265625 C-26.52040986 61.23246673 -29.64804716 64.71149106 -33 68 C-33.66 67.67 -34.32 67.34 -35 67 C-34.27296875 66.30777344 -34.27296875 66.30777344 -33.53125 65.6015625 C-21.04448627 53.45098087 -12.44910787 40.15235275 -6 24 C-5.69191406 23.30519531 -5.38382813 22.61039063 -5.06640625 21.89453125 C-3.69145838 18.66732199 -2.81790769 15.40007617 -2.15625 11.9609375 C-2.01533936 11.22987793 -1.87442871 10.49881836 -1.72924805 9.74560547 C-1.12713842 6.50119756 -0.55656249 3.25253543 0 0 Z " fill="#EAEAEA" transform="translate(219,128)"/>
<path d="M0 0 C2 1 2 1 2.8515625 3.359375 C6.28895175 18.42833393 6.84802021 35.80532706 4 51 C3.34 51 2.68 51 2 51 C2.01571045 50.18023682 2.0314209 49.36047363 2.04760742 48.51586914 C2.50063554 27.65096331 2.50063554 27.65096331 -0.44140625 7.0546875 C-0.96497049 4.19156 -1.00819935 2.68408038 0 0 Z " fill="#F8F8F8" transform="translate(218,81)"/>
<path d="M0 0 C8.75499547 0.30719282 16.07625903 3.58956759 24 7 C24.65524658 7.25982666 25.31049316 7.51965332 25.9855957 7.78735352 C30.89901158 9.76436036 30.89901158 9.76436036 31.9375 12.1875 C31.958125 12.785625 31.97875 13.38375 32 14 C28.44819616 14 27.67172214 13.23816823 24.8125 11.25 C14.81119225 5.07400996 2.57119288 3.43830276 -9 3 C-9 2.67 -9 2.34 -9 2 C-6.03 2 -3.06 2 0 2 C0 1.34 0 0.68 0 0 Z " fill="#181818" transform="translate(117,51)"/>
<path d="M0 0 C3.21297373 1.41748841 5.90829575 3.33652443 8.71850586 5.42700195 C19.99915805 13.80439735 31.65115025 18.87863382 45 23 C40.82174517 24.80301952 37.19856077 23.03427151 33.1875 21.5625 C32.43919922 21.29171631 31.69089844 21.02093262 30.91992188 20.74194336 C20.26458087 16.75068641 7.8714943 11.42612534 0 3 C0 2.01 0 1.02 0 0 Z " fill="#E6E6E6" transform="translate(41,196)"/>
<path d="M0 0 C0.33 0 0.66 0 1 0 C1.33 3.3 1.66 6.6 2 10 C2.33 10 2.66 10 3 10 C3.18451025 22.66970387 3.18451025 22.66970387 2 28 C1.01 28.33 0.02 28.66 -1 29 C-1.33 28.34 -1.66 27.68 -2 27 C-2.66 28.32 -3.32 29.64 -4 31 C-5.38518678 28.22962643 -4.56456961 27.02990787 -3.625 24.125 C-1.79412625 18.39282518 -0.78510388 13.27893285 -0.4375 7.25 C-0.39431641 6.55261719 -0.35113281 5.85523437 -0.30664062 5.13671875 C-0.20110404 3.42468078 -0.1001009 1.71236439 0 0 Z " fill="#242424" transform="translate(169,102)"/>
<path d="M0 0 C1.04220703 0.50660156 1.04220703 0.50660156 2.10546875 1.0234375 C12.49965661 5.58159846 22.77577823 6.32027476 34 7 C34 7.33 34 7.66 34 8 C31.69 8 29.38 8 27 8 C27 8.66 27 9.32 27 10 C16.69561428 9.36419748 8.08549833 6.87924911 -1 2 C-0.67 1.34 -0.34 0.68 0 0 Z " fill="#202020" transform="translate(83,167)"/>
<path d="M0 0 C2.125 0.375 2.125 0.375 4 1 C-3.29840547 9.44646925 -3.29840547 9.44646925 -7 13 C-7.33 12.34 -7.66 11.68 -8 11 C-7.04454634 9.53977837 -6.08553322 8.08188532 -5.125 6.625 C-4.59132813 5.81289062 -4.05765625 5.00078125 -3.5078125 4.1640625 C-2 2 -2 2 0 0 Z " fill="#131313" transform="translate(70,68)"/>
<path d="M0 0 C0.33 0.99 0.66 1.98 1 3 C-0.625 5.453125 -0.625 5.453125 -3 8.25 C-3.82371094 9.22066406 -4.64742187 10.19132813 -5.49609375 11.19140625 C-8.53677085 14.60208774 -11.6745703 17.8670389 -15 21 C-15.66 20.67 -16.32 20.34 -17 20 C-16.5153125 19.53851563 -16.030625 19.07703125 -15.53125 18.6015625 C-6.72422563 10.1106503 -6.72422563 10.1106503 0 0 Z " fill="#DFDFDF" transform="translate(201,175)"/>
<path d="M0 0 C1.54296875 1.609375 1.54296875 1.609375 3.1875 3.75 C3.73792969 4.44609375 4.28835937 5.1421875 4.85546875 5.859375 C6 8 6 8 5.67578125 10.265625 C5.45277344 10.83796875 5.22976562 11.4103125 5 12 C1.36440339 8.56638098 -1.36113346 5.2026393 -4 1 C-2 0 -2 0 0 0 Z " fill="#F5F5F5" transform="translate(24,175)"/>
<path d="M0 0 C0.66 0 1.32 0 2 0 C2.86375896 1.61992165 3.71575854 3.24611861 4.5625 4.875 C5.03816406 5.77992187 5.51382813 6.68484375 6.00390625 7.6171875 C6.33261719 8.40351562 6.66132813 9.18984375 7 10 C6.67 10.66 6.34 11.32 6 12 C2.17330957 8.57611908 0.27721526 5.99275057 -1 1 C-0.67 0.67 -0.34 0.34 0 0 Z " fill="#F6F6F6" transform="translate(208,57)"/>
<path d="M0 0 C2.97 0.33 5.94 0.66 9 1 C8.01 1.495 8.01 1.495 7 2 C7 2.66 7 3.32 7 4 C1.72 3.67 -3.56 3.34 -9 3 C-9 2.67 -9 2.34 -9 2 C-6.03 2 -3.06 2 0 2 C0 1.34 0 0.68 0 0 Z " fill="#323232" transform="translate(117,51)"/>
<path d="M0 0 C0.66 0.33 1.32 0.66 2 1 C1.3543999 4.48624056 0.07639763 7.12498789 -2 10 C-2.99 10 -3.98 10 -5 10 C-4.56802365 5.2482602 -3.67230705 3.07999946 0 0 Z " fill="#E8E8E8" transform="translate(110,72)"/>
<path d="M0 0 C1.48484412 0.39595843 2.9628831 0.81750706 4.4375 1.25 C5.26121094 1.48203125 6.08492187 1.7140625 6.93359375 1.953125 C9 3 9 3 9.78515625 5.109375 C9.85605469 5.73328125 9.92695313 6.3571875 10 7 C6.55639368 7 5.25204608 6.20408468 2.3125 4.5 C1.50425781 4.0359375 0.69601563 3.571875 -0.13671875 3.09375 C-0.75160156 2.7328125 -1.36648437 2.371875 -2 2 C-1.34 1.34 -0.68 0.68 0 0 Z " fill="#252525" transform="translate(139,58)"/>
<path d="M0 0 C1.65 0.33 3.3 0.66 5 1 C3.08864614 4.53600465 1.37357234 6.78972846 -2 9 C-2.33 8.01 -2.66 7.02 -3 6 C-2.01 5.67 -1.02 5.34 0 5 C-0.33 4.01 -0.66 3.02 -1 2 C-0.67 1.34 -0.34 0.68 0 0 Z " fill="#EBEBEB" transform="translate(182,175)"/>
<path d="M0 0 C1.9078584 3.1749094 2.1609041 5.10585211 1.625 8.75 C1.51414063 9.54921875 1.40328125 10.3484375 1.2890625 11.171875 C1.19367188 11.77515625 1.09828125 12.3784375 1 13 C0.01 13.33 -0.98 13.66 -2 14 C-1.855625 13.175 -1.71125 12.35 -1.5625 11.5 C-0.94746848 7.67313722 -0.46439363 3.84783293 0 0 Z " fill="#DADADA" transform="translate(219,128)"/>
<path d="M0 0 C0.33 0.66 0.66 1.32 1 2 C1.99 2 2.98 2 4 2 C4.66 3.65 5.32 5.3 6 7 C5.01 7.66 4.02 8.32 3 9 C1.68 6.36 0.36 3.72 -1 1 C-0.67 0.67 -0.34 0.34 0 0 Z " fill="#E7E7E7" transform="translate(203,50)"/>
<path d="M0 0 C0.99 0.33 1.98 0.66 3 1 C2.16855469 1.72316406 2.16855469 1.72316406 1.3203125 2.4609375 C0.59585938 3.09257812 -0.12859375 3.72421875 -0.875 4.375 C-1.59429687 5.00148437 -2.31359375 5.62796875 -3.0546875 6.2734375 C-4.4076598 7.47426834 -5.7208345 8.7208345 -7 10 C-7 7 -7 7 -5.46875 5.17578125 C-4.8190625 4.56089844 -4.169375 3.94601563 -3.5 3.3125 C-2.8503125 2.68988281 -2.200625 2.06726563 -1.53125 1.42578125 C-0.77328125 0.72001953 -0.77328125 0.72001953 0 0 Z " fill="#121212" transform="translate(183,181)"/>
<path d="M0 0 C2.4375 0.75 2.4375 0.75 5 2 C5.8125 4.125 5.8125 4.125 6 6 C3.11424181 5.60196439 2.17810487 5.20990931 0.25 2.9375 C-0.1625 2.298125 -0.575 1.65875 -1 1 C-0.67 0.67 -0.34 0.34 0 0 Z " fill="#F5F5F5" transform="translate(182,26)"/>
<path d="M0 0 C1.65 0.99 3.3 1.98 5 3 C4.67 3.99 4.34 4.98 4 6 C1.69 5.01 -0.62 4.02 -3 3 C-2.01 2.01 -1.02 1.02 0 0 Z " fill="#E5E5E5" transform="translate(163,12)"/>
<path d="M0 0 C0.66 0 1.32 0 2 0 C3 3 3 3 2.25 5.625 C1 8 1 8 -2 9 C-1.34 6.03 -0.68 3.06 0 0 Z " fill="#D8D8D8" transform="translate(91,125)"/>
<path d="M0 0 C0.66 0.33 1.32 0.66 2 1 C0.79618552 3.49361571 -0.45428722 5.68143083 -2 8 C-2 7.34 -2 6.68 -2 6 C-2.99 5.67 -3.98 5.34 -5 5 C-3.35 3.35 -1.7 1.7 0 0 Z M-7 6 C-6.34 6.33 -5.68 6.66 -5 7 C-5.99 7 -6.98 7 -8 7 C-7.67 6.67 -7.34 6.34 -7 6 Z " fill="#E1E1E1" transform="translate(55,32)"/>
<path d="M0 0 C3.63 0 7.26 0 11 0 C11 0.33 11 0.66 11 1 C8.69 1 6.38 1 4 1 C4 1.66 4 2.32 4 3 C2.02 3 0.04 3 -2 3 C-1.34 2.67 -0.68 2.34 0 2 C0 1.34 0 0.68 0 0 Z " fill="#505050" transform="translate(106,174)"/>
<path d="M0 0 C0.66 0.33 1.32 0.66 2 1 C1.875 2.875 1.875 2.875 1 5 C-2.0625 6.25 -2.0625 6.25 -5 7 C-3.35 4.69 -1.7 2.38 0 0 Z " fill="#1D1D1D" transform="translate(159,148)"/>
<path d="M0 0 C3.41158256 1.13719419 4.11854601 2.04342944 6 5 C6 5.66 6 6.32 6 7 C3.5625 6.3125 3.5625 6.3125 1 5 C0.1875 2.375 0.1875 2.375 0 0 Z " fill="#FAFAFA" transform="translate(200,45)"/>
<path d="M0 0 C-0.99 1.485 -0.99 1.485 -2 3 C-4.31 2.67 -6.62 2.34 -9 2 C-9 1.34 -9 0.68 -9 0 C-2.25 -1.125 -2.25 -1.125 0 0 Z " fill="#0F0F0F" transform="translate(119,175)"/>
<path d="M0 0 C0.33 0.66 0.66 1.32 1 2 C-0.25 5.0625 -0.25 5.0625 -2 8 C-2.99 8.33 -3.98 8.66 -5 9 C-4.690625 8.236875 -4.38125 7.47375 -4.0625 6.6875 C-3.32106407 4.81210323 -2.63771783 2.91315348 -2 1 C-1.34 0.67 -0.68 0.34 0 0 Z " fill="#E1E1E1" transform="translate(213,156)"/>
<path d="M0 0 C0.99 0.33 1.98 0.66 3 1 C2.67 3.31 2.34 5.62 2 8 C0.4375 6.25 0.4375 6.25 -1 4 C-0.6875 1.75 -0.6875 1.75 0 0 Z " fill="#080808" transform="translate(167,128)"/>
<path d="M0 0 C0.33 0.66 0.66 1.32 1 2 C3.01669827 3.13350534 3.01669827 3.13350534 5 4 C4.01 4.99 3.02 5.98 2 7 C0.4375 5.1875 0.4375 5.1875 -1 3 C-0.67 2.01 -0.34 1.02 0 0 Z " fill="#EDEDED" transform="translate(99,117)"/>
<path d="M0 0 C0.66 0.66 1.32 1.32 2 2 C-0.97 4.475 -0.97 4.475 -4 7 C-4.66 6.34 -5.32 5.68 -6 5 C-4.02 3.35 -2.04 1.7 0 0 Z " fill="#E3E3E3" transform="translate(176,185)"/>
<path d="M0 0 C1.32 1.32 2.64 2.64 4 4 C1.525 5.485 1.525 5.485 -1 7 C-0.67 4.69 -0.34 2.38 0 0 Z " fill="#DEDEDE" transform="translate(154,168)"/>
<path d="M0 0 C0.66 0 1.32 0 2 0 C2.66 1.98 3.32 3.96 4 6 C2.68 6.33 1.36 6.66 0 7 C-0.33 6.01 -0.66 5.02 -1 4 C-0.34 4 0.32 4 1 4 C0.67 2.68 0.34 1.36 0 0 Z " fill="#EBEBEB" transform="translate(12,157)"/>
<path d="M0 0 C-0.33 1.65 -0.66 3.3 -1 5 C-1.99 5 -2.98 5 -4 5 C-4.33 4.34 -4.66 3.68 -5 3 C-2.25 0 -2.25 0 0 0 Z " fill="#141414" transform="translate(164,144)"/>
<path d="M0 0 C3.7952131 1.49097658 5.61042731 3.75700849 8 7 C7.01 7 6.02 7 5 7 C2.84365964 4.84365964 1.52206009 2.62901288 0 0 Z " fill="#010101" transform="translate(169,50)"/>
</svg>
